<svg version="1.1" id="Layer_1" xmlns="http://www.w3.org/2000/svg" xmlns:xlink="http://www.w3.org/1999/xlink" x="0px" y="0px" viewBox="0 0 500 500" style="width: 144px;" xml:space="preserve" data-imageid="restaurant-74" imageName="Restaurant" class="illustrations_image">
            <style type="text/css">
              .st0{fill:#965000;}
              .st1{fill:#231F20;}
              .st2{fill:#D91849;}
              .st3{fill:none;}
              .st4{fill:#D1D3D4;}
            </style>
            <g id="Character_Male">
              <path class="st0" d="M213.2,221.8c0,0,7.1-27.9,8.7-26.3s2.1,7.9,0.3,12.9c0,0,12.6-19.2,15.2-16.8s8.4,7.6,7.6,12.1&#10;&#9;&#9;s-14.1,26.3-14.1,26.3L213.2,221.8z"/>
              <path class="st1" d="M230.9,230.8c-0.1,0-0.2,0-0.3-0.1l-17.7-8.1c-0.4-0.2-0.6-0.6-0.5-1c4.4-17.4,7.5-26.5,9.1-26.9&#10;&#9;&#9;c0.4-0.1,0.7,0,1,0.3c1.5,1.5,2,5.4,1.5,9.3c3.6-5.2,9.7-13.3,12.6-13.7c0.5-0.1,1,0.1,1.4,0.4c2.6,2.4,8.8,7.9,7.9,12.9&#10;&#9;&#9;c-0.8,4.6-13.7,25.7-14.2,26.6C231.4,230.6,231.2,230.7,230.9,230.8z M214.2,221.3l16.4,7.5c3.9-6.5,13-21.9,13.6-25.4&#10;&#9;&#9;c0.7-4.1-5.1-9.3-7.4-11.3h-0.1c-1.6,0-7.9,7.5-13.9,16.7c-0.3,0.4-0.8,0.5-1.1,0.2c-0.3-0.2-0.5-0.6-0.3-1&#10;&#9;&#9;c1.5-4.2,1.3-9.4,0.3-11.4C220.2,199.4,216.9,210.7,214.2,221.3z"/>
              <polygon class="st0" points="71,344.5 72.9,371.3 175.4,371.3 154.9,334.2 &#9;"/>
              <path class="st1" d="M175.4,372H72.9c-0.4,0-0.7-0.3-0.7-0.6l-1.9-26.8c0-0.4,0.2-0.7,0.6-0.7l83.9-10.2c0.3,0,0.6,0.1,0.7,0.4&#10;&#9;&#9;L176,371c0.2,0.3,0,0.8-0.3,0.9C175.6,372,175.5,372,175.4,372L175.4,372z M73.6,370.6h100.6L154.5,335l-82.8,10.1L73.6,370.6z"/>
              <path class="st2" d="M141.3,212.6l42,50.9l23.9-37.3l21,13.7c0,0-20.6,62.6-38.1,63.6S138,266.7,138,266.7L141.3,212.6z"/>
              <path class="st2" d="M97.2,199.8c0,0-41.8,9-45.1,24.7s9.6,118.9,16.3,130.3l92,0.3c0,0-12.4-94.9-13.4-110.6s-3.3-29.4-5.7-31.8&#10;&#9;&#9;S104.8,193.6,97.2,199.8z"/>
              <path class="st1" d="M92.7,208.6c0.7,2.3,33.4,78.4,33.4,78.4l-6-69.2L92.7,208.6z"/>
              <path class="st1" d="M126.1,287.6c-0.3,0-0.5-0.2-0.6-0.4c-1.3-3.1-32.7-76.1-33.4-78.4c-0.1-0.4,0.1-0.8,0.5-0.9&#10;&#9;&#9;c0.1,0,0.3,0,0.4,0l27.4,9.2c0.3,0.1,0.4,0.3,0.5,0.6l6,69.2c0,0.3-0.2,0.7-0.5,0.7C126.2,287.6,126.2,287.6,126.1,287.6z&#10;&#9;&#9; M93.9,209.7c3.3,8,20.5,48.2,31.2,72.9l-5.6-64.4L93.9,209.7z"/>
              <path class="st0" d="M92.1,195.8c-2.3,0.4-4.8,0.2-7-0.6c-0.8-0.2-1.5-0.7-2-1.3c-0.5-0.7-0.5-1.6,0-2.2c0.9-1,3-0.3,3.6-1.5&#10;&#9;&#9;c-6.2-6.9-8.1-16.4-8-25.4c0.1-4.6,1.1-9.1,3-13.3c0.6-1.4,5.3-10.6,7.2-10.1l-9.6-2.2l11.3-2.9c3.1-0.8,6.3-1.6,9.3-0.5l-10.4-3.8&#10;&#9;&#9;c12.2-5.7,26.2-5.9,38.5-0.3l-4.7-6.8c7.2,1,13.7,4.9,18.1,10.8c4.3,5.9,5.6,13.5,3.6,20.5c-1,3.3-3.2,7.1-6.4,8.8&#10;&#9;&#9;c-3.5,1.8-7.4,1.4-10.6,4.1c-3.4,2.9-5.9,7.4-9,10.8c-4.9,5.3-11.1,9.4-18,11.8c-2.6,0.9-3.2,2.1-5.5,3.2&#10;&#9;&#9;C94.3,195.2,93.2,195.6,92.1,195.8z"/>
              <path class="st1" d="M89.6,196.8c-1.6,0-3.3-0.3-4.8-0.9c-0.9-0.3-1.7-0.8-2.3-1.6c-0.7-0.9-0.7-2.2,0.1-3.1&#10;&#9;&#9;c0.6-0.5,1.4-0.8,2.2-0.8c0.3,0,0.7-0.1,1-0.2c-6.6-7.6-7.8-17.9-7.7-25.3c0.1-4.7,1.1-9.3,3.1-13.6c0-0.1,3.2-7,5.9-9.6l-7.8-1.8&#10;&#9;&#9;c-0.3-0.1-0.5-0.3-0.5-0.7c0-0.3,0.2-0.6,0.5-0.7l11.3-2.9c1.5-0.4,3-0.7,4.5-0.9l-5.7-2.1c-0.3-0.1-0.5-0.3-0.5-0.6&#10;&#9;&#9;c0-0.3,0.1-0.5,0.4-0.7c11.6-5.5,24.9-5.9,36.8-1.2l-3.3-4.8c-0.1-0.2-0.1-0.5,0-0.8c0.1-0.2,0.4-0.4,0.7-0.3c7.4,1,14.1,5,18.5,11&#10;&#9;&#9;c4.4,6.1,5.8,13.9,3.7,21.1c-1,3.3-3.3,7.4-6.8,9.2c-1.5,0.7-3,1.2-4.6,1.5c-2.1,0.5-4.2,1-5.9,2.5c-1.9,1.8-3.7,3.8-5.2,6&#10;&#9;&#9;c-1.2,1.6-2.4,3.2-3.8,4.7c-5,5.4-11.3,9.6-18.2,12c-1.1,0.4-2.1,0.9-3,1.7c-0.7,0.6-1.5,1.1-2.4,1.5c-1.1,0.6-2.3,0.9-3.5,1.2l0,0&#10;&#9;&#9;C91.4,196.7,90.5,196.8,89.6,196.8z M88.7,142c-1.2,0.1-4.9,6.5-6.4,9.8c-1.9,4.1-2.9,8.5-2.9,13c-0.1,7.3,1.2,17.6,7.8,24.9&#10;&#9;&#9;c0.2,0.2,0.2,0.5,0.1,0.8c-0.5,0.8-1.4,1.3-2.3,1.3c-0.5,0-1,0.1-1.4,0.4c-0.3,0.4-0.3,0.9,0,1.3c0.4,0.5,1,0.9,1.7,1.1&#10;&#9;&#9;c2.1,0.8,4.4,1,6.7,0.6l0,0c1.1-0.2,2.1-0.5,3.1-1c0.8-0.4,1.5-0.9,2.1-1.4c1-0.8,2.2-1.5,3.4-1.9c6.8-2.3,12.8-6.3,17.7-11.6&#10;&#9;&#9;c1.3-1.5,2.5-3,3.7-4.6c1.6-2.3,3.4-4.4,5.4-6.3c1.9-1.5,4.1-2.4,6.5-2.8c1.5-0.3,2.9-0.8,4.2-1.4c3.1-1.6,5.2-5.4,6.1-8.4&#10;&#9;&#9;c1.9-6.8,0.7-14.2-3.5-19.9c-3.9-5.3-9.6-8.9-16-10.2l3.7,5.4c0.2,0.3,0.1,0.8-0.3,1c-0.2,0.1-0.4,0.1-0.6,0&#10;&#9;&#9;c-11.5-5.2-24.7-5.4-36.3-0.4l8.8,3.2c0.4,0.1,0.6,0.5,0.4,0.9c-0.1,0.4-0.5,0.6-0.9,0.4c-2.9-1-6.2-0.2-8.9,0.5l-8.5,2.2l6.8,1.5&#10;&#9;&#9;c0.4,0.1,0.6,0.5,0.5,0.8C89.4,141.9,89.1,142.1,88.7,142C88.7,142,88.7,142,88.7,142z"/>
              <path class="st0" d="M136.7,169.6c0,0,7.6,13,5.7,15.5s-7.5,0.5-7.5,0.5"/>
              <path class="st1" d="M139.2,187c-1.5,0-3-0.3-4.4-0.8c-0.4-0.1-0.6-0.5-0.4-0.9s0.5-0.6,0.9-0.4c1.4,0.5,5.4,1.5,6.7-0.2&#10;&#9;&#9;c1-1.3-2.2-8.7-5.8-14.7c-0.2-0.3-0.1-0.7,0.2-1c0,0,0,0,0.1,0c0.3-0.2,0.8-0.1,1,0.2c0,0,0,0,0,0.1c1.8,3.1,7.7,13.6,5.7,16.2&#10;&#9;&#9;C142.1,186.5,140.7,187.1,139.2,187z"/>
              <path class="st0" d="M135.9,152.9c5,4.6,3,13.6,2.6,19.5c-0.5,8.3-1.2,16.6-2.1,24.9c-0.6,5.2-14.2,4.6-16.6,2.9l0.3,17.5&#10;&#9;&#9;c0,0-3.7,9.5-14.5,3.7s-12.9-12.9-12.9-12.9l2.2-24c0,0,9,0.6,14.9-9.9s6.6-27,6.6-27S131,148.4,135.9,152.9z"/>
              <path class="st1" d="M112,224c-2.4-0.1-4.7-0.7-6.7-1.9c-10.9-5.8-13.2-13-13.3-13.3c0-0.1,0-0.2,0-0.3l2.2-24&#10;&#9;&#9;c0-0.4,0.4-0.6,0.7-0.6c0.3,0,8.7,0.4,14.3-9.5c5.8-10.2,6.5-26.5,6.5-26.6c0-0.2,0.1-0.4,0.2-0.5c0.1-0.1,0.3-0.2,0.5-0.2&#10;&#9;&#9;c0.6,0,14.8,0.8,19.8,5.4l0,0c4.4,4.1,3.7,11.2,3.1,16.9c-0.1,1.1-0.2,2.2-0.3,3.2c-0.5,8.3-1.2,16.7-2.1,24.9&#10;&#9;&#9;c-0.1,1.1-0.7,2.5-3.1,3.6c-3.8,1.6-10.4,1.4-13.4,0.4l0.3,16.4c0,0.1,0,0.2,0,0.3c-1.1,2.5-3.1,4.4-5.6,5.5&#10;&#9;&#9;C114.2,223.8,113.1,224,112,224z M93.4,208.5c0.3,0.9,3,7.3,12.5,12.4c3.3,1.8,6.2,2.2,8.7,1.3c2.1-0.9,3.8-2.5,4.7-4.6l-0.3-17.4&#10;&#9;&#9;c0-0.4,0.3-0.7,0.7-0.7c0.2,0,0.3,0,0.4,0.1c1.5,1.1,9.2,1.8,13.2,0c1.4-0.6,2.1-1.4,2.3-2.4c0.9-8.2,1.6-16.6,2.1-24.9&#10;&#9;&#9;c0.1-1,0.2-2.1,0.3-3.2c0.6-5.4,1.2-12.1-2.7-15.7l0,0c-4.1-3.7-15.3-4.8-18.2-5c-0.2,3.3-1.4,17.2-6.7,26.6&#10;&#9;&#9;c-5.2,9.2-12.6,10.1-14.9,10.2L93.4,208.5z"/>
              <path class="st0" d="M136.5,191.1c0,0-6.7,3.6-9.7-3.2"/>
              <path class="st1" d="M132.6,192.8c-0.8,0-1.5-0.1-2.2-0.4c-2-0.7-3.5-2.3-4.3-4.2c-0.2-0.4,0-0.8,0.3-0.9c0.4-0.2,0.8,0,0.9,0.4&#10;&#9;&#9;c0.6,1.6,1.8,2.9,3.4,3.5c1.8,0.5,3.7,0.3,5.3-0.6c0.3-0.2,0.8-0.1,1,0.2c0,0,0,0,0,0c0.2,0.3,0.1,0.8-0.3,0.9c0,0,0,0,0,0&#10;&#9;&#9;C135.6,192.4,134.1,192.8,132.6,192.8z"/>
              <path class="st0" d="M120.5,174c0.1-2.1-1-4-2-5.8c-0.7-1.4-1.7-2.8-2.8-3.9c-1.1-1.2-2.8-1.8-4.4-1.6c-1.4,0.3-2.7,1.2-3.4,2.4&#10;&#9;&#9;c-0.7,1.2-1.2,2.6-1.3,4.1c-0.6,6.4,2.2,12.6,7.4,16.3l-0.4-0.5"/>
              <path class="st1" d="M114,186.1c-0.1,0-0.3,0-0.4-0.1c-5.4-3.9-8.3-10.3-7.7-17c0.1-1.5,0.6-3,1.4-4.4c0.8-1.4,2.3-2.4,3.9-2.7&#10;&#9;&#9;c1.9-0.2,3.7,0.5,5,1.8c1.2,1.2,2.2,2.6,2.9,4.1c1,1.7,2.2,3.9,2.1,6.2c0,0.4-0.3,0.7-0.7,0.7c-0.4,0-0.7-0.3-0.7-0.7&#10;&#9;&#9;c0.1-1.9-1-3.9-1.9-5.5c-0.7-1.4-1.6-2.7-2.7-3.8c-1-1-2.4-1.6-3.8-1.4c-1.2,0.3-2.3,1-2.9,2.1c-0.7,1.2-1.1,2.4-1.2,3.8&#10;&#9;&#9;c-0.6,5.7,1.8,11.3,6.2,15c0.2,0,0.4,0.1,0.6,0.3l0.4,0.5c0.2,0.3,0.2,0.7,0,0.9C114.4,186,114.2,186.1,114,186.1z"/>
              <path class="st1" d="M119.8,200.2c0,0-7-2.6-10-7.6c0,0-0.2,12.7,10.4,17L119.8,200.2z"/>
              <path class="st1" d="M120.2,210.3c-0.1,0-0.2,0-0.3-0.1c-11-4.4-10.8-17.5-10.8-17.6c0-0.3,0.2-0.6,0.5-0.7c0.3-0.1,0.6,0,0.8,0.3&#10;&#9;&#9;c2.9,4.8,9.6,7.3,9.6,7.3c0.3,0.1,0.4,0.3,0.4,0.6l0.4,9.3c0,0.2-0.1,0.5-0.3,0.6C120.5,210.2,120.4,210.3,120.2,210.3z M110.7,195&#10;&#9;&#9;c0.5,3.6,2.3,10.3,8.8,13.5l-0.4-7.8C115.9,199.4,113.1,197.5,110.7,195z"/>
              <ellipse transform="matrix(0.2212 -0.9752 0.9752 0.2212 -56.4565 256.4011)" class="st1" cx="132.3" cy="163.5" rx="3" ry="1.2"/>
              <path class="st1" d="M153.3,293.2c-0.3,0-0.6-0.2-0.7-0.5l-14.1-65.8c-0.1-0.4,0.2-0.7,0.5-0.8c0.4-0.1,0.7,0.1,0.8,0.5&#10;&#9;&#9;c0,0,0,0,0,0l14.2,65.8c0.1,0.4-0.2,0.8-0.5,0.8L153.3,293.2z"/>
              <polygon class="st1" points="228.2,239.9 230.9,229.9 213,217.3 206.7,228.6 &#9;"/>
              <path class="st1" d="M228.2,240.6c-0.1,0-0.2,0-0.3-0.1l-21.6-11.3c-0.2-0.1-0.3-0.2-0.4-0.4c-0.1-0.2,0-0.4,0.1-0.5l6.3-11.3&#10;&#9;&#9;c0.1-0.2,0.3-0.3,0.5-0.3c0.2,0,0.4,0,0.6,0.1l17.9,12.6c0.2,0.2,0.4,0.5,0.3,0.8l-2.6,10c0,0.2-0.2,0.4-0.4,0.5&#10;&#9;&#9;C228.4,240.6,228.3,240.6,228.2,240.6z M207.7,228.3l20.1,10.6l2.3-8.7l-16.8-11.9L207.7,228.3z"/>
            </g>
            <g id="Character_Female">
              <line class="st3" x1="402.4" y1="365.6" x2="436.8" y2="301"/>
              <path class="st1" d="M402.4,366.4c-0.1,0-0.2,0-0.3-0.1c-0.3-0.2-0.5-0.6-0.3-0.9c0,0,0,0,0,0l34.4-64.6c0.2-0.3,0.6-0.5,0.9-0.3&#10;&#9;&#9;c0.3,0.2,0.5,0.6,0.3,0.9c0,0,0,0,0,0L403,366C402.9,366.2,402.7,366.3,402.4,366.4z"/>
              <path class="st2" d="M436,317.3c0,0,11.1,43.1,13.2,54l-85.4-2.7l4.3-68.6L436,317.3z"/>
              <path class="st0" d="M380.4,213.6c0,0-19.6,52.6-22.6,53.6s-45-6.1-48.7-6.2s-17.7,10.5-17.7,10.5s61.7,33.9,80.5,25.1&#10;&#9;&#9;s22.9-10.5,22.9-10.5S385.8,213.6,380.4,213.6z"/>
              <path class="st1" d="M364,298.9c-24,0-70.7-25.4-72.9-26.6c-0.4-0.2-0.5-0.7-0.3-1.1c0.1-0.1,0.1-0.2,0.2-0.3&#10;&#9;&#9;c1.5-1.1,14.2-10.7,18.1-10.7h0.1c1.3,0,7.3,0.9,14.9,2.1c11.8,1.8,31.7,4.7,33.5,4.2c2.3-1.6,14.8-33.4,22.1-53.1&#10;&#9;&#9;c0.1-0.3,0.5-0.6,0.8-0.5c1.4,0,4.1,0.5,10.1,37c2.9,18,5.2,36.1,5.2,36.3c0,0.4-0.2,0.7-0.5,0.9c0,0-4.3,1.8-22.9,10.5&#10;&#9;&#9;C369.7,298.5,366.9,299,364,298.9z M293,271.4c8.5,4.5,61.8,32.3,78.6,24.5c15-7,20.7-9.5,22.4-10.2c-4.1-32.5-9.9-66.6-13.2-70.8&#10;&#9;&#9;C374.7,231.2,361,267,358,268c-2,0.6-16-1.4-34.2-4.1c-7.2-1.1-13.5-2-14.7-2l0,0C306.7,261.8,298.4,267.4,293,271.4L293,271.4z"/>
              <path class="st0" d="M381.3,141.9c0.2-0.4,0.5-0.8,0.7-1.2c8.6-13.3,26.9-14.5,38.8-4.7c0.8,0.8,1.8,1.4,2.8,1.9&#10;&#9;&#9;c1.3,0.3,2.6,0.5,3.9,0.5c4.6,0.6,7.8,4.7,10.4,8.6c7.5,11.3,8.8,30,8.8,43.2c0,10.4-2.5,21.1-8.8,29.3c-9,11.6-24.4,16.6-39,17.8&#10;&#9;&#9;c-16.2,1.4-34.4-1.9-44.7-14.4c-4.4-5.3-7-12.6-4.7-19.1c2-5.6,7.3-9.3,11.2-13.8C372.2,176.9,372.2,157,381.3,141.9z"/>
              <path class="st1" d="M391.9,238.5c-16.7,0-30.5-5.3-38.5-15c-4-4.9-7.4-12.7-4.8-19.9c1.5-4.1,4.7-7.3,7.8-10.3&#10;&#9;&#9;c1.2-1.2,2.5-2.4,3.6-3.7c6.5-7.3,9.2-16.6,12.2-26.4c2.2-7.4,4.5-15,8.5-21.6l0,0c0.2-0.4,0.5-0.8,0.8-1.2&#10;&#9;&#9;c3.9-6.1,10.2-10.2,17.4-11.2c8.1-1.2,16.3,1.1,22.6,6.4l0.3,0.3c0.7,0.6,1.4,1.1,2.2,1.5c0.8,0.2,1.5,0.4,2.3,0.4&#10;&#9;&#9;c0.5,0,1,0,1.4,0.1c4.9,0.6,8.3,4.9,11,8.9c5.9,9,8.9,23.7,8.9,43.7c0,8.3-1.6,20.2-9,29.8c-10.1,13.1-27.1,17.1-39.6,18.1&#10;&#9;&#9;C396.5,238.4,394.2,238.5,391.9,238.5z M382,142.4c-3.9,6.5-6.1,14-8.3,21.3c-2.9,9.6-5.8,19.4-12.5,27c-1.2,1.3-2.5,2.6-3.7,3.8&#10;&#9;&#9;c-3.1,3-6,5.9-7.4,9.7c-2.4,6.5,0.8,13.7,4.6,18.2c8.7,10.6,24.8,15.8,44,14.1c12.2-1,28.7-4.9,38.5-17.5&#10;&#9;&#9;c7.1-9.2,8.6-20.7,8.7-28.8c0-19.7-2.9-34.1-8.6-42.8c-2.5-3.7-5.6-7.6-9.8-8.2c-0.4-0.1-0.9-0.1-1.3-0.1c-1,0-1.9-0.2-2.8-0.4&#10;&#9;&#9;c-1-0.4-1.9-1-2.7-1.8l-0.3-0.3c-5.9-4.9-13.7-7.1-21.3-6c-6.7,1-12.6,4.8-16.2,10.5C382.5,141.5,382.2,141.9,382,142.4L382,142.4z&#10;&#9;&#9;"/>
              <path class="st2" d="M368.6,318.5c0,0-1.6-42,0.2-74.4c1-18.1,6.8-22.3,11.5-30.6c8.7-15.3,50.6-17.4,67.9-0.5S436,317.3,436,317.3&#10;&#9;&#9;L368.6,318.5z"/>
              <path class="st0" d="M393.2,199.5l-1.7,18.4l5.1,25.4l24.4-28.5c0.9-16.5,2.1-32.9,2.4-49.4c0.2-0.6-0.2-1.2-0.9-1.4&#10;&#9;&#9;c-0.3-0.1-0.5,0-0.8,0.1l-4.9,0.6l-0.5-9.1c-1.2,1.5-2.3,3.1-3.2,4.8l-13.5-1.2l-1.6-8.2c-1,1.1-1.1,2.8-1.2,4.3s-0.8,3.2-2.3,3.6&#10;&#9;&#9;c-0.7,0.1-1.3,0.1-2-0.1l-10.2-2c-0.1,0-1.8,27.5-1.7,29.8C381.3,196.2,393.2,199.5,393.2,199.5z"/>
              <path class="st1" d="M396.6,244.1c-0.1,0-0.1,0-0.2,0c-0.3-0.1-0.5-0.3-0.6-0.6l-5.1-25.5c0-0.1,0-0.2,0-0.2l1.6-17.8&#10;&#9;&#9;c-2.6-0.9-11.9-4.5-12.4-13.4c0-0.3,1.3-29.9,2-30.5c0.2-0.2,0.5-0.2,0.7-0.2l10.2,2c0.5,0.2,1.1,0.2,1.6,0.1&#10;&#9;&#9;c1.2-0.4,1.6-2.3,1.6-2.9l0.1-0.6c0-1.5,0.5-2.9,1.4-4.1c0.2-0.2,0.5-0.3,0.8-0.2c0.3,0.1,0.5,0.3,0.6,0.6l1.5,7.6l12.3,1.1&#10;&#9;&#9;c0.8-1.6,1.9-3.1,3-4.5c0.2-0.3,0.6-0.4,0.9-0.2c0.3,0.1,0.6,0.4,0.6,0.7l0.4,8.2l4-0.5c0.8-0.2,1.6,0,2.1,0.6&#10;&#9;&#9;c0.3,0.5,0.5,1,0.4,1.6c-0.2,12.6-1,25.4-1.7,37.8c-0.2,3.9-0.5,7.8-0.7,11.6c0,0.2-0.1,0.4-0.2,0.5l-24.3,28.5&#10;&#9;&#9;C397.2,244,396.9,244.1,396.6,244.1z M392.3,217.8l4.8,23.6l23-27c0.2-3.8,0.4-7.6,0.7-11.4c0.7-12.4,1.5-25.2,1.7-37.8&#10;&#9;&#9;c0-0.2,0-0.3,0-0.5c-0.2,0-0.4,0-0.7,0l-4.9,0.6c-0.5,0.1-0.9-0.3-0.9-0.7c0,0,0,0,0,0l-0.3-6.9c-0.6,0.9-1.2,1.9-1.7,2.9&#10;&#9;&#9;c-0.2,0.3-0.5,0.5-0.8,0.4l-13.5-1.2c-0.4,0-0.7-0.3-0.7-0.7l-1-5.3c0,0.2,0,0.5-0.1,0.7l-0.1,0.6c-0.3,2.3-1.3,3.9-2.9,4.3&#10;&#9;&#9;c-0.8,0.2-1.6,0.1-2.4-0.1l-9.3-1.8c-0.4,4.7-1.7,26.9-1.6,28.8c0.5,8.9,11.7,12.1,11.8,12.1c0.4,0.1,0.6,0.5,0.6,0.9L392.3,217.8z&#10;&#9;&#9;"/>
              <path class="st0" d="M415,178.7c1.4-3.9,6.5-6.7,10.6-5.7c5.3,1.4,4.6,7.4,2.5,11.1c-2.6,4.7-8.6,6.5-13.3,3.8c0,0-0.1,0-0.1-0.1"/>
              <path class="st1" d="M419.5,190c-1.8,0-3.7-0.5-5.3-1.4c-0.4-0.2-0.5-0.8-0.2-1.1c0.2-0.4,0.7-0.5,1.1-0.3&#10;&#9;&#9;c4.3,2.4,9.8,0.9,12.3-3.4c0,0,0,0,0,0c1.2-2.1,1.9-5.3,1-7.5c-0.6-1.2-1.7-2.1-3-2.4c-3.6-0.9-8.3,1.6-9.6,5.2&#10;&#9;&#9;c-0.1,0.4-0.6,0.7-1,0.6s-0.7-0.6-0.6-1c0,0,0-0.1,0-0.1c1.5-4.3,7.2-7.4,11.6-6.2c1.8,0.4,3.4,1.6,4.1,3.4c1.3,2.9,0.2,6.7-1,9&#10;&#9;&#9;c-1.4,2.5-3.7,4.3-6.4,5.1C421.5,189.9,420.5,190,419.5,190z"/>
              <path class="st0" d="M394.8,167.4c0,0-7.7,8.7-6.4,10.6s5.7,1.4,5.7,1.4"/>
              <path class="st1" d="M392.7,180.2c-1.6,0-4-0.3-5-1.8c-1.5-2.1,3.4-8.2,6.5-11.6c0.3-0.3,0.8-0.4,1.2-0.1c0.3,0.3,0.4,0.8,0.1,1.2&#10;&#9;&#9;l0,0c-3.7,4.2-6.7,8.6-6.4,9.6c0.7,1,3.4,1.2,4.9,1c0.5-0.1,0.9,0.3,0.9,0.7c0.1,0.5-0.3,0.9-0.7,0.9&#10;&#9;&#9;C394,180.1,393.5,180.2,392.7,180.2z"/>
              <path class="st1" d="M393.2,199.5c0,0,6.9,1.9,15.7-2.7c0,0-4.3,12.7-16.6,12.7L393.2,199.5z"/>
              <path class="st1" d="M392.3,210.2c-0.2,0-0.5-0.1-0.6-0.3c-0.2-0.2-0.2-0.4-0.2-0.6l0.9-10c0-0.2,0.2-0.5,0.4-0.6&#10;&#9;&#9;c0.2-0.1,0.5-0.2,0.7-0.1c0.1,0,6.7,1.8,15.1-2.6c0.3-0.2,0.7-0.1,0.9,0.1c0.3,0.2,0.4,0.6,0.2,0.9&#10;&#9;&#9;C409.7,197.1,405,210.2,392.3,210.2L392.3,210.2z M393.9,200.5l-0.7,8.1c8.1-0.5,12.4-6.8,14.1-10.1&#10;&#9;&#9;C403.1,200.4,398.5,201.1,393.9,200.5z"/>

                <ellipse transform="matrix(3.316162e-03 -1 1 3.316162e-03 234.4588 572.3601)" class="st1" cx="404.4" cy="168.6" rx="2.9" ry="1.3"/>

                <ellipse transform="matrix(5.617004e-02 -0.9984 0.9984 5.617004e-02 198.9382 545.1296)" class="st1" cx="387.8" cy="167.3" rx="2.9" ry="1.3"/>
              <path class="st1" d="M395.4,186c-2.1-0.1-4.1-0.5-6-1.2c-0.2-0.1-0.5-0.2-0.7-0.2c-0.4-0.1-0.8-0.5-0.7-0.9&#10;&#9;&#9;c0.1-0.4,0.5-0.8,0.9-0.7c0.3,0.1,0.7,0.2,1,0.3c2.8,0.9,10.1,3.4,14-4.8c0.2-0.4,0.7-0.6,1.1-0.4c0.4,0.2,0.6,0.7,0.4,1.1&#10;&#9;&#9;c0,0,0,0,0,0C402.8,184.6,398.9,186,395.4,186z"/>
              <path class="st0" d="M447.6,231.5c-2.6,22.2-16.2,74.3-35,70.2S354,265.6,353,264.6s-14.9-4.6-17.4-8.9s-3.1-17.1-3.1-17.1&#10;&#9;&#9;s-13.5-7.9-13.3-10.7s27.1,9.7,29.3,10.9c0,0,2.3-6.9,5.5-5s4.6,13.6,8.9,15.6s45.8,21.4,45.8,21.4s6.8-41.3,19.4-55.5&#10;&#9;&#9;C434.4,208.2,450.3,209.3,447.6,231.5z"/>
              <path class="st1" d="M414.7,302.7c-0.8,0-1.5-0.1-2.3-0.2c-19-4.1-58.5-35.8-60-37.3c-1.1-0.5-2.3-1-3.5-1.4&#10;&#9;&#9;c-4.9-1.8-12.2-4.4-14-7.7c-2.3-4.1-3.1-14.7-3.2-17c-4.4-2.6-13.6-8.4-13.3-11.3c0-0.4,0.3-0.8,0.6-1c3-1.6,24.5,8.6,29.1,10.8&#10;&#9;&#9;c0.6-1.4,1.9-4.1,3.9-4.8c0.8-0.3,1.7-0.2,2.5,0.2c1.7,1,2.8,3.8,4,7.2c1.3,3.5,2.8,7.4,4.9,8.4c4,1.8,38.5,18,44.8,21&#10;&#9;&#9;c1.2-6.8,7.8-41.8,19.4-54.9c3.4-3.8,8.9-5.1,13.7-3.1c5.8,2.6,8.4,9.9,7.2,20.1c-2,17-11.5,57.9-26.5,68.6&#10;&#9;&#9;C419.9,301.8,417.3,302.7,414.7,302.7z M320.2,228.2c0.6,1.6,6.2,5.8,12.8,9.6c0.2,0.1,0.4,0.4,0.4,0.7c0,0.1,0.7,12.6,3,16.8&#10;&#9;&#9;c1.5,2.8,8.8,5.4,13.1,7c2.8,1,3.7,1.4,4.1,1.8c1.6,1.6,41,32.9,59.2,36.9c2.9,0.6,5.9-0.2,8.2-2c13.7-9.8,23.6-48.8,25.8-67.5&#10;&#9;&#9;c1.1-9.4-1.1-16.1-6.2-18.3c-4.1-1.7-8.8-0.6-11.8,2.7c-12.3,13.8-19.1,54.7-19.2,55.1c0,0.3-0.2,0.5-0.4,0.6&#10;&#9;&#9;c-0.2,0.1-0.5,0.1-0.8,0c-0.4-0.2-41.4-19.5-45.7-21.5c-2.7-1.2-4.3-5.3-5.7-9.3c-1-2.8-2.1-5.6-3.3-6.3c-0.3-0.2-0.7-0.2-1.1-0.1&#10;&#9;&#9;c-1.3,0.5-2.7,3.1-3.2,4.7c-0.1,0.4-0.6,0.7-1,0.5c0,0-0.1,0-0.1-0.1C344.8,237.6,324,228.2,320.2,228.2L320.2,228.2z"/>
              <polygon class="st0" points="303,274.4 340.5,253.7 310.1,169.1 276.6,193.5 &#9;"/>
              <path class="st1" d="M303,275.2c-0.1,0-0.2,0-0.3-0.1c-0.2-0.1-0.4-0.3-0.5-0.5l-26.4-80.9c-0.1-0.3,0-0.7,0.3-0.9l33.5-24.4&#10;&#9;&#9;c0.2-0.2,0.5-0.2,0.7-0.1c0.2,0.1,0.4,0.3,0.5,0.5l30.4,84.5c0.1,0.4,0,0.8-0.4,1l-37.4,20.7C303.3,275.2,303.2,275.2,303,275.2z&#10;&#9;&#9; M277.5,193.8l25.9,79.3l35.9-19.9l-29.7-82.8L277.5,193.8z"/>
              <path class="st4" d="M307.4,266.2c-0.1,0-0.1,0-0.2,0c-0.2-0.1-0.3-0.2-0.3-0.3L284,195.6c-0.1-0.2,0-0.5,0.2-0.6l22.7-15.8&#10;&#9;&#9;c0.2-0.2,0.6-0.1,0.7,0.1c0,0,0,0.1,0.1,0.1l26,70.8c0.1,0.2,0,0.5-0.2,0.6l-25.8,15.2C307.6,266.2,307.5,266.2,307.4,266.2z&#10;&#9;&#9; M285.1,195.7l22.6,69.3l24.9-14.7l-25.6-69.8L285.1,195.7z"/>
              <polygon class="st0" points="303,274.4 279.9,268.7 251.8,183.7 276.6,193.5 &#9;"/>
              <path class="st1" d="M303,275.2h-0.2l-23.1-5.7c-0.3-0.1-0.5-0.3-0.6-0.5L251,184c-0.1-0.3,0-0.6,0.2-0.9c0.2-0.2,0.6-0.3,0.9-0.2&#10;&#9;&#9;l24.8,9.9c0.2,0.1,0.4,0.3,0.5,0.5l26.4,80.8c0.1,0.4-0.1,0.9-0.5,1C303.2,275.2,303.1,275.2,303,275.2L303,275.2z M280.5,268&#10;&#9;&#9;l21.2,5.2l-25.8-79.1l-22.8-9.1L280.5,268z"/>
              <path class="st0" d="M309.7,252.1c1,0.1,1.9,0.9,2.1,1.9c0.1,1.1-1,2-1.9,2.6l-6.2,4.4c2.3-1.3,4.7-2.3,7.3-3&#10;&#9;&#9;c1.1-0.4,2.2-0.4,3.3-0.1c1.1,0.3,1.8,1.4,1.7,2.5c-0.2,0.7-0.7,1.3-1.4,1.7c-2.2,1.6-4.6,2.9-7.2,3.7c1.4-0.4,2.8-1,4-1.8&#10;&#9;&#9;c1.2-0.8,2.6-1.4,4-1.5c1.5-0.1,2.9,0.8,3.3,2.3c0.3,1.7-1.3,3.2-3,3.9s-3.5,0.9-4.8,2.1c1.7-1.3,3.7-2.2,5.8-2.7&#10;&#9;&#9;c0.6-0.2,1.3-0.1,1.8,0.2c0.6,0.7,0.5,1.7-0.2,2.3c0,0,0,0-0.1,0.1c-0.7,0.5-1.6,0.9-2.4,1.1c-4.6,1.9-6.8,8.4-11.8,8.9&#10;&#9;&#9;c-7.4,0.7-12-11.3-11.2-17.3S304.1,251.4,309.7,252.1z"/>
              <path class="st1" d="M303.4,281.5c-2.3-0.1-4.5-1.1-6.1-2.9c-3.9-4-5.8-11.2-5.3-15.4c0.9-6.4,11.4-12.7,17.7-11.9l0,0&#10;&#9;&#9;c1.4,0.1,2.6,1.2,2.8,2.7c0.1,1.5-1.1,2.5-2.2,3.3l0,0l0.4-0.1c1.2-0.4,2.5-0.5,3.8-0.1c1.5,0.4,2.5,1.9,2.2,3.5&#10;&#9;&#9;c-0.1,0.4-0.3,0.7-0.5,1.1c1.6,0.2,2.9,1.3,3.3,2.9c0.2,1-0.1,2-0.7,2.8c0.1,0.1,0.2,0.1,0.3,0.2c0.4,0.4,0.7,1,0.7,1.5&#10;&#9;&#9;c0,0.8-0.4,1.6-1,2.1c-0.6,0.5-1.3,0.8-2,1c-0.2,0.1-0.4,0.1-0.6,0.2c-1.9,0.8-3.4,2.5-4.9,4.1c-2,2.2-4,4.5-7.1,4.9&#10;&#9;&#9;C303.9,281.5,303.7,281.5,303.4,281.5z M308.7,252.9c-5.5,0-14.2,5.4-14.9,10.5c-0.5,3.8,1.4,10.5,4.8,14c1.3,1.6,3.4,2.5,5.5,2.4&#10;&#9;&#9;c2.5-0.2,4.2-2.2,6.1-4.3c1.6-1.8,3.2-3.6,5.5-4.6l0.7-0.3c0.5-0.1,1-0.4,1.5-0.7c0.2-0.2,0.4-0.5,0.4-0.8c0-0.1,0-0.2-0.1-0.3&#10;&#9;&#9;c-0.2-0.1-0.5-0.2-0.8-0.1c-0.4,0.2-0.8,0.5-1.2,0.6c-0.5,0.2-1.1,0.4-1.6,0.5c-0.8,0.2-1.6,0.5-2.4,0.9l-0.7,0.5&#10;&#9;&#9;c-0.4,0.3-0.9,0.2-1.2-0.2c-0.2-0.3-0.2-0.8,0.1-1.1c0.3-0.2,0.5-0.4,0.8-0.6c1.6-1.1,3.5-1.9,5.4-2.3h0.1c0.8-0.5,1.3-1.4,1.2-2.3&#10;&#9;&#9;c-0.4-1-1.4-1.7-2.5-1.6c-0.5,0-1,0.1-1.4,0.3c-1.3,0.9-2.6,1.6-4.1,2.2c-0.7,0.4-1.6,0.7-2.4,0.9c-0.4,0.1-0.9-0.2-1-0.6&#10;&#9;&#9;c-0.1-0.4,0.1-0.9,0.6-1c0.7-0.2,1.4-0.5,2.1-0.7c0.5-0.2,0.9-0.5,1.4-0.8l0.3-0.2c0.7-0.5,1.5-0.9,2.3-1.2l0.9-0.6&#10;&#9;&#9;c0.5-0.3,0.8-0.7,1.1-1.2c0.1-0.6-0.5-1.3-1.1-1.5c-0.9-0.2-1.9-0.2-2.8,0.2c-2.5,0.6-4.9,1.6-7.1,2.9c-0.4,0.2-0.9,0.1-1.1-0.3&#10;&#9;&#9;c-0.2-0.4-0.1-0.9,0.2-1.1l6.2-4.4c0.8-0.5,1.6-1.2,1.5-1.9s-0.7-1.1-1.4-1.1l0,0C309.3,252.9,309,252.9,308.7,252.9L308.7,252.9z"/>
              <polygon class="st1" points="423.2,182.6 418.2,194.7 427.4,195.5 &#9;"/>
              <path class="st1" d="M427.4,196.3L427.4,196.3l-9.3-0.8c-0.3,0-0.5-0.2-0.6-0.4c-0.1-0.2-0.2-0.5-0.1-0.8l5-12.1&#10;&#9;&#9;c0.1-0.3,0.4-0.5,0.8-0.5c0.3,0,0.7,0.2,0.8,0.6l4.2,12.9c0.1,0.3,0,0.6-0.1,0.8C427.9,196.2,427.7,196.3,427.4,196.3z&#10;&#9;&#9; M419.4,193.9l6.8,0.6l-3.1-9.5L419.4,193.9z"/>
              <path class="st4" d="M278.5,232.7c-3.6,0-8.4-5.2-11.6-12.8c-3.6-8.6-3.6-16.4,0-18s9.2,4,12.9,12.5l0,0c3.6,8.5,3.6,16.4,0,17.9&#10;&#9;&#9;C279.5,232.6,279,232.7,278.5,232.7z M268.2,202.7c-0.3,0-0.6,0.1-0.9,0.2c-3,1.3-2.7,8.9,0.6,16.6s8.5,13.2,11.5,12&#10;&#9;&#9;s2.7-8.9-0.6-16.6C275.9,207.9,271.3,202.7,268.2,202.7L268.2,202.7z"/>
              <path class="st4" d="M273.7,200.1c-0.1,0-0.1,0-0.2,0l-13.9-4.7c-0.3-0.1-0.4-0.4-0.3-0.7c0.1-0.3,0.4-0.4,0.7-0.3l13.9,4.7&#10;&#9;&#9;c0.3,0.1,0.4,0.4,0.3,0.7C274.1,200,273.9,200.1,273.7,200.1z"/>
              <path class="st4" d="M288.4,245.2L288.4,245.2l-13.2-2.5c-0.3-0.1-0.5-0.3-0.4-0.6c0,0,0,0,0,0c0-0.3,0.3-0.5,0.6-0.4c0,0,0,0,0,0&#10;&#9;&#9;l13.1,2.5c0.3,0.1,0.4,0.4,0.3,0.7C288.8,245,288.6,245.1,288.4,245.2L288.4,245.2z"/>
              <path class="st4" d="M290.5,251.1h-0.1l-13.1-2.5c-0.3,0-0.5-0.2-0.5-0.5s0.2-0.5,0.5-0.5c0.1,0,0.1,0,0.2,0l13.1,2.4&#10;&#9;&#9;c0.3,0.1,0.4,0.4,0.3,0.7C290.9,250.8,290.7,251,290.5,251.1L290.5,251.1z"/>
              <path class="st4" d="M292.4,257.4L292.4,257.4l-13.2-2.5c-0.3-0.1-0.5-0.3-0.4-0.6c0.1-0.3,0.3-0.5,0.6-0.4l13.1,2.5&#10;&#9;&#9;c0.3,0.1,0.4,0.4,0.3,0.7C292.7,257.2,292.6,257.3,292.4,257.4L292.4,257.4z"/>
            </g>
            <g id="Table">
              <polygon class="st0" points="126,360.6 406.7,360.6 361.2,311 171.6,311 &#9;"/>
              <path class="st1" d="M406.7,361.3H126c-0.4,0-0.7-0.3-0.7-0.7c0-0.2,0.1-0.3,0.2-0.5l45.5-49.7c0.1-0.1,0.3-0.2,0.5-0.2h189.7&#10;&#9;&#9;c0.2,0,0.4,0.1,0.5,0.2l45.5,49.7c0.2,0.2,0.2,0.5,0.1,0.7C407.2,361.2,407,361.3,406.7,361.3z M127.6,360h277.6l-44.3-48.3H171.9&#10;&#9;&#9;L127.6,360z"/>
              <rect x="125.9" y="360.9" class="st1" width="281.1" height="14.4"/>
              <path class="st1" d="M407,376H125.9c-0.4,0-0.7-0.3-0.7-0.7v-14.4c0-0.4,0.3-0.7,0.7-0.7H407c0.4,0,0.7,0.3,0.7,0.7v14.4&#10;&#9;&#9;C407.8,375.6,407.4,376,407,376C407,376,407,376,407,376z M126.6,374.5h279.6v-12.9H126.6V374.5z"/>
            </g>
            <g id="Candle">
              <ellipse class="st1" cx="266.4" cy="335" rx="17.6" ry="7"/>
              <path class="st1" d="M266.4,342.7c-10.3,0-18.3-3.4-18.3-7.7s8-7.7,18.3-7.7s18.3,3.4,18.3,7.7S276.6,342.7,266.4,342.7z&#10;&#9;&#9; M266.4,328.6c-10.1,0-16.9,3.3-16.9,6.4s6.8,6.4,16.9,6.4s16.9-3.3,16.9-6.4S276.5,328.6,266.4,328.6z"/>
              <path class="st0" d="M252.1,310.5v22.9c0,3.2,6.4,5.7,14.3,5.7s14.3-2.6,14.3-5.7v-22.9H252.1z"/>
              <path class="st1" d="M266.4,339.7c-8.4,0-15-2.8-15-6.4v-22.9c0-0.4,0.3-0.7,0.7-0.7c0,0,0,0,0,0h28.6c0.4,0,0.7,0.3,0.7,0.7v22.9&#10;&#9;&#9;C281.4,336.9,274.8,339.7,266.4,339.7z M252.8,311.1v22.2c0,2.4,5.6,5,13.6,5s13.6-2.7,13.6-5v-22.2H252.8z"/>
              <ellipse class="st0" cx="266.4" cy="310.5" rx="14.3" ry="5.7"/>
              <path class="st1" d="M266.4,316.9c-8.4,0-15-2.8-15-6.4s6.6-6.4,15-6.4s15,2.8,15,6.4S274.8,316.9,266.4,316.9z M266.4,305.4&#10;&#9;&#9;c-8,0-13.6,2.7-13.6,5s5.6,5,13.6,5s13.6-2.7,13.6-5S274.4,305.4,266.4,305.4z"/>
              <path class="st2" d="M258.5,301.2c-0.3-1.3-0.1-2.6,0.7-3.7c0.7-0.7,1.6-1.4,2.5-1.9c1.5-1.1,2.9-3.8,1.5-5.5&#10;&#9;&#9;c0.6,0.3,1.3,0.6,2,0.9c0.6,0.4,1.2,0.8,1.8,1.4c1.3,1.2,2.3,2.8,3,4.5c0.9,2.3,0.6,5-0.9,7c-2.5,3.1-7.6,2.1-9.7-0.9&#10;&#9;&#9;C258.9,302.4,258.6,301.9,258.5,301.2z"/>
              <path class="st1" d="M265.7,309.3c-0.3,0-0.5-0.2-0.6-0.4c-0.1-0.2-2.4-5.4-1.7-8.2c0.1-0.4,0.5-0.6,0.8-0.5&#10;&#9;&#9;c0.4,0.1,0.6,0.5,0.5,0.8c-0.5,2,1,6,1.6,7.3c0.1,0.3,0,0.7-0.3,0.9C265.9,309.2,265.8,309.3,265.7,309.3z"/>
            </g>
            <g id="Menu">
              <path class="st4" d="M233.1,346.5L233.1,346.5l-78.9-1c-0.3,0-0.5-0.2-0.7-0.4c-0.1-0.3-0.1-0.6,0.1-0.8c1.5-1.9,15-18.6,18.1-20.2&#10;&#9;&#9;c0.1,0,0.2-0.1,0.3-0.1l74.6,0.5c0.3,0,0.5,0.2,0.6,0.4c0.1,0.2,0.1,0.5,0,0.8l-13.6,20.5C233.6,346.4,233.3,346.6,233.1,346.5z&#10;&#9;&#9; M155.7,344l77,1l12.6-19l-73.1-0.5C169.9,326.9,161.5,336.9,155.7,344z"/>
              <path class="st4" d="M228.9,337.7c-0.1,0-0.3,0-0.4-0.1c-0.3-0.2-0.4-0.7-0.2-1l4.7-7.5c0.2-0.4,0.7-0.5,1-0.3&#10;&#9;&#9;c0.4,0.2,0.5,0.7,0.3,1c0,0,0,0,0,0.1l-4.7,7.5C229.4,337.6,229.2,337.7,228.9,337.7z"/>
              <path class="st4" d="M209,338.9c-6.6,0-13.5-1.8-13.5-5.1s7-5.1,13.5-5.1s13.6,1.8,13.6,5.1S215.6,338.9,209,338.9z M209,330.2&#10;&#9;&#9;c-7.5,0-12.1,2.1-12.1,3.6s4.6,3.6,12.1,3.6s12.1-2.1,12.1-3.6S216.5,330.2,209,330.2z"/>
            </g>
            <g id="Right_Hand">
              <path class="st2" d="M72.5,225l22.8,80.6l68.9-7.9l0.9,25.8c0,0-65.5,11-84.5,5.8s-28.5-65-33.2-81.2S54,206.9,72.5,225z"/>
              <path class="st1" d="M147.2,298.8c-17.6,0-42.4-0.2-44-1.2c-2.2-1.5-25.5-57.8-30.2-69c-0.1-0.4,0-0.8,0.4-0.9&#10;&#9;&#9;c0.4-0.1,0.8,0,0.9,0.4c10.9,26.5,27.9,66.6,29.7,68.4c2,0.9,36.4,1.1,59,0.9l0,0c0.4,0,0.7,0.3,0.7,0.7c0,0.4-0.3,0.7-0.7,0.7&#10;&#9;&#9;C160.3,298.8,154.3,298.8,147.2,298.8z"/>
              <path class="st1" d="M100.7,333.6c-7.1,0-12.9-0.8-16-2.9c-17.2-11.3-28.5-33.4-33.6-65.7c0-0.4,0.2-0.7,0.6-0.8&#10;&#9;&#9;c0.4,0,0.7,0.2,0.8,0.5c5,31.9,16.1,53.6,33,64.7c13.1,8.6,76.4-6.4,77.1-6.5c0.4-0.1,0.7,0.2,0.8,0.5c0.1,0.4-0.1,0.7-0.5,0.8&#10;&#9;&#9;C160.8,324.8,124,333.6,100.7,333.6z"/>
              <path class="st0" d="M170.5,304.5c0,0,18.7-11.8,23.2-11.2c3.5,0.5,6.6,4,8.9,6.4c3,3,5.5,5.9,6.1,10.3c0.5,2.1,0,4.3-1.2,6.1&#10;&#9;&#9;c-2,2.4-4.9,1.7-6.8-0.3c-2.6-2.6-4.2-3.2-6.8-2.5c-6.7,3.7-22.8,3.8-22.8,3.8L170.5,304.5z"/>
              <path class="st1" d="M204.5,318.1c-1.6-0.1-3.2-0.8-4.3-2c-2.4-2.4-3.7-2.9-6-2.4c-6.8,3.8-22.4,3.9-23,3.9l0,0&#10;&#9;&#9;c-0.4,0-0.7-0.3-0.7-0.7l-0.6-12.5c0-0.3,0.1-0.5,0.3-0.6c1.9-1.2,19.1-12,23.7-11.3c3.3,0.5,6.1,3.4,8.4,5.7&#10;&#9;&#9;c0.3,0.3,0.6,0.6,0.9,0.9c2.9,2.9,5.6,6,6.3,10.7c0.3,1.9,0.2,4.6-1.4,6.6c-0.8,1-2,1.7-3.3,1.8L204.5,318.1z M195.7,312.2&#10;&#9;&#9;c1.9,0,3.5,0.9,5.5,3c0.9,1,2.1,1.5,3.4,1.5c0.9,0,1.8-0.5,2.4-1.3c1.4-1.7,1.3-4.2,1.1-5.5c-0.6-4.3-3.1-7.1-5.9-9.9&#10;&#9;&#9;c-0.3-0.3-0.6-0.6-0.9-0.9c-2.1-2.2-4.8-4.9-7.6-5.3c-3.4-0.5-17,7.5-22.4,10.9l0.6,11.5c3.1-0.1,16.1-0.5,21.8-3.7&#10;&#9;&#9;c0.1,0,0.1-0.1,0.2-0.1C194.4,312.3,195,312.2,195.7,312.2z"/>
              <polygon class="st1" points="164.2,299.2 174.4,299.8 175.9,318.6 164.6,321.2 &#9;"/>
              <path class="st1" d="M164.6,321.9c-0.2,0-0.3-0.1-0.4-0.1c-0.2-0.1-0.3-0.3-0.3-0.5l-0.4-22.1c0-0.4,0.3-0.7,0.7-0.7c0,0,0,0,0,0&#10;&#9;&#9;l10.2,0.7c0.3,0,0.6,0.3,0.6,0.6l1.4,18.8c0,0.3-0.2,0.7-0.5,0.7l-11.3,2.6L164.6,321.9z M164.9,299.9l0.4,20.5l9.9-2.3l-1.4-17.6&#10;&#9;&#9;L164.9,299.9z"/>
            </g>
          </svg>
